PathFileType	4	(X/Y/Z)	Patient4_TMGait_0pt4_01_right_17.trc.trc
DataRate	CameraRate	NumFrames	NumMarkers	Units	OrigDataRate	OrigDataStartFrame	OrigNumFrames
74.074074074074	74.074074074074	5	33	mm	74.074074074074	53	       141
Frame#	Time	Sacral			L.Shoulder			Chest			R.Shoulder			Neck			R.ASIS			L.ASIS			R.Thigh.Superior			R.Thigh.Lateral			R.Thigh.Inferior			R.Patella			L.Thigh.Superior			L.Thigh.Lateral			L.Thigh.Inferior			L.Patella			L.Shank.Superior			L.Shank.Lateral			L.Shank.Inferior			R.Shank.Superior			R.Shank.Lateral			R.Shank.Inferior			R.Heel			R.Midfoot.Superior			R.Midfoot.Lateral			R.Toe			L.Heel			L.Midfoot.Lateral			L.Midfoot.Superior			L.Toe			L.Elbow			L.Wrist			R.Elbow			R.Wrist			
		X1	Y1	Z1	X2	Y2	Z2	X3	Y3	Z3	X4	Y4	Z4	X5	Y5	Z5	X6	Y6	Z6	X7	Y7	Z7	X8	Y8	Z8	X9	Y9	Z9	X10	Y10	Z10	X11	Y11	Z11	X12	Y12	Z12	X13	Y13	Z13	X14	Y14	Z14	X15	Y15	Z15	X16	Y16	Z16	X17	Y17	Z17	X18	Y18	Z18	X19	Y19	Z19	X20	Y20	Z20	X21	Y21	Z21	X22	Y22	Z22	X23	Y23	Z23	X24	Y24	Z24	X25	Y25	Z25	X26	Y26	Z26	X27	Y27	Z27	X28	Y28	Z28	X29	Y29	Z29	X30	Y30	Z30	X31	Y31	Z31	X32	Y32	Z32	X33	Y33	Z33	

53	22.652000000000	623.825202539835	1010.437579251443	445.890985434653	784.266239682300	1442.680825412982	256.296123247727	907.909277149215	1373.539002938556	400.731874908966	848.269547663518	1444.423047481327	585.411074593814	789.691765651375	1499.446437875927	420.521428396361	866.010682875162	941.875224923433	533.486965841513	820.113517393720	974.932916410493	265.197489831275	891.300950561582	737.623956641113	500.357877767786	805.896668920003	630.634388633725	562.102330811958	876.735077506898	577.148580814299	477.861862802316	870.886680944169	491.712912057364	481.598986445197	900.986530944874	787.161509291318	276.629017051627	846.716092054372	662.018860707132	197.647781622279	955.529409409669	598.525896383986	243.827695211783	969.414365540130	512.835384560721	232.181462086932	912.945872026805	442.157223814292	227.340959560541	778.555803898544	375.644764138806	187.860478610963	797.034688146607	244.123159382948	236.024922523791	842.020944664918	403.490442586104	486.120410102435	769.210403529828	298.324014128550	544.613445538060	810.578856615977	205.966146237695	475.843135318043	675.162126963995	40.934663777115	437.666262917509	847.821022338328	95.660087229309	474.683058680170	758.682332075073	33.779166180935	511.772648999706	967.145493886299	42.679491274364	499.057126457314	628.412148344333	138.866709035166	285.836492892881	685.768126286384	110.836092591098	197.928874858599	788.012555932835	141.856503795541	210.726095753212	885.296911687815	51.688515690982	168.500488198522	747.227986934060	1145.740542339636	51.984075751758	885.527979222577	955.773043081616	-69.732708512941	898.541598856901	1121.650730773454	744.815083568999	1118.906511458252	989.174190109273	720.242111776905	
54	22.665500000000	621.543215832257	1011.159283317502	447.624933173071	782.315706255262	1443.308531285200	258.493493525317	906.667096780369	1373.371051092981	401.923122549253	848.510842256095	1443.932970933292	587.171561816521	789.011359670476	1499.588404450166	422.672386124082	864.160234446698	941.770029104475	533.965943155309	817.127493405017	975.468372567249	265.855170325056	887.808517776270	737.303309299038	500.676929769598	801.905063740579	630.719931864967	562.768945094279	872.156205847981	576.826187384752	478.417563229122	865.771056630957	491.628408763322	482.212448191981	898.418028247939	788.881124911428	276.840705645204	845.185142914981	663.528935360059	197.435047412983	954.565362806210	601.032565402071	243.682255744873	969.957479339761	516.309942773011	231.581105481394	915.960684321255	444.721015521074	226.155171534182	784.379026094147	373.161022693045	186.388135821057	808.580382106683	242.048662994983	233.355179802821	836.875789336060	403.502545225880	486.653551606060	763.768748211204	298.390265020126	544.915061709548	805.195035649790	206.019027496836	476.170095870205	669.762406651083	40.907876568559	437.717155443071	842.436062716164	95.673093433692	474.763299941517	753.252934104115	33.780495891115	511.808639195249	961.698386318947	42.693691872741	499.071948381661	644.957463553365	129.043886671075	282.860406596911	703.059189798799	104.575357519942	194.383067990154	803.856186714617	139.809606493156	207.139820124791	904.769142399825	54.650203230858	163.504353461193	740.829956962141	1146.976327264816	54.110881840458	878.672824592252	957.140769478278	-68.587306968801	902.792324962910	1120.986585623277	744.761334796922	1124.629285937680	991.402196560985	718.059442867684	
55	22.679000000000	619.317266201412	1011.795631656731	449.215732034190	780.504003304764	1443.826126250660	260.503794143279	905.509515701038	1373.089590831126	402.963568485994	848.791385076371	1443.364039470055	588.753124394936	788.357360895335	1499.637627058446	424.650630611517	862.289463396196	941.577594287580	534.304827544690	814.172253089780	975.895238911817	266.372977038493	884.334920168754	736.935624354114	500.840798823408	797.988135855301	630.756056355591	563.306581371959	867.614386984218	576.472912690469	478.827966139710	860.707174453482	491.511327491529	482.698097089270	895.617341697607	790.286553485900	277.003499005463	843.397197345338	664.799948409163	197.145336109506	953.131774073262	603.167827818543	243.747715294931	970.035332842466	519.576325329252	231.156990681048	918.697779170011	447.177366592120	225.048549692726	790.409989048456	370.347890426591	184.664910382523	820.555222554887	239.900118430397	230.508839982974	831.774249429733	403.467834663128	487.068198615586	758.402694032841	298.418566696345	545.144672566939	799.838821165363	206.029232363407	476.414376446602	664.356846506979	40.876611356176	437.746385766351	837.042511184059	95.675559964452	474.816293545258	747.820819986832	33.780755657668	511.830281363845	956.251164293691	42.701358584730	499.087181403320	662.399315057648	119.017920215931	279.317867143805	721.376462519315	98.169576362703	190.466150334961	820.481459265834	137.763490564325	203.399446004853	925.088438733822	57.872337091061	158.726978082574	734.575619504715	1148.063743357264	56.189167498967	871.906999612096	958.255360500601	-67.381585790095	906.615898600828	1120.195882139892	744.474323511046	1129.725204322841	993.264455221209	715.599590390847	
56	22.692500000000	617.178842658393	1012.320744323235	450.661611135863	778.831544967541	1444.228570984634	262.312110949894	904.434153858047	1372.688124963488	403.843073352167	849.100995812393	1442.708595828201	590.147128211215	787.722470642924	1499.590475096338	426.450560904498	860.405251363368	941.301035269311	534.505234169503	811.249602457470	976.191413051173	266.755897060390	880.899092928797	736.517044371575	500.864070267762	794.156594396991	630.739337354317	563.718319447428	863.121518912416	576.084624576608	479.097932927626	855.703700965784	491.356723828659	483.053350091494	892.628528994231	791.389454468939	277.153260918011	841.429478791389	665.845980319458	196.782183716790	951.310670011169	604.944468544466	244.019654505548	969.726465907239	522.626628153804	230.919343904542	921.179028713851	449.533690324992	224.069481309646	796.637787830387	367.374632315832	182.721643604060	832.758435009109	237.872276196316	227.603356279947	826.715908490243	403.381719208883	487.360907123323	753.121569635926	298.405655005126	545.305465072476	794.515346414494	205.994095566359	476.574469779853	658.942449431590	40.843565713521	437.753304297381	831.639694407991	95.666319261371	474.843169706292	742.386104865849	33.780538209521	511.838257898413	950.804362729126	42.702729974275	499.103636293028	680.414195525500	109.228668848313	275.296417541552	740.410692270840	91.963645571397	186.312729181787	837.588211594645	135.941084168775	199.677955909168	945.852803464611	61.434114151341	154.447589202178	728.504912040237	1148.994344506149	58.198408029546	865.238388421815	959.110709343212	-66.167139864146	910.004339763085	1119.273758693361	743.984773609685	1134.183428048415	994.748045925370	712.889265610028	
57	22.706000000000	615.161911567953	1012.719145416752	451.958488986508	777.292729412275	1444.522271826473	263.906874947336	903.433991990289	1372.173730415595	404.554678964031	849.422852526831	1441.969968588498	591.346662268734	787.096638382355	1499.452981738203	428.068046795733	858.517188584021	940.952636806450	534.571803371577	808.366139101876	976.350387956661	267.010051653215	877.514427894234	736.048234571441	500.764188881395	790.407388638760	630.672636240422	564.010161844506	858.679708363815	575.661477815623	479.237058704327	850.759553680815	491.164113673154	483.280991681844	889.503823787340	792.216469704673	277.313241750360	839.343303013197	666.690468045599	196.350503036938	949.184498640663	606.388205311748	244.454373607195	969.099925459670	525.461396378450	230.853719412442	923.417140503548	451.797086167459	223.251225302390	803.017730170680	364.392426897144	180.609235017034	844.976552597473	236.122227870886	224.761441392646	821.693131174559	403.246979141011	487.534694453380	747.922573843584	298.354375726648	545.401648579761	789.224066844450	205.916697923935	476.654222164999	653.517909393229	40.811822392790	437.738869045883	826.227795202800	95.645925540514	474.846495065400	736.949119658616	33.780555263660	511.833858337035	945.358295104570	42.698530882709	499.121615196001	698.660506777412	100.034393773848	270.932821193163	759.824086358251	86.238057370304	182.083621166130	854.858402283835	134.520489359792	196.147165715328	966.663648659927	65.396701339602	150.900888809731	722.656678984626	1149.768354621110	60.121271164795	858.672341904190	959.706552348127	-64.987357922463	912.953317437406	1118.224990426987	743.315755980802	1137.994715942681	995.839080650697	709.961151480076	
